<?xml version="1.0" encoding="iso-8859-1"?>
<!-- Uploaded to: SVG Repo, www.svgrepo.com, Generator: SVG Repo Mixer Tools -->
<svg version="1.1" id="Capa_1" xmlns="http://www.w3.org/2000/svg" xmlns:xlink="http://www.w3.org/1999/xlink" 
	 viewBox="0 0 48.929 48.929" xml:space="preserve">
<g>
	<g>
		<rect x="21.966" y="0" style="fill:#010002;" width="4.655" height="2.92"/>
		<path style="fill:#010002;" d="M19.322,4.976h9.89c0.185,0,0.331-0.149,0.331-0.333l-2.871-1.296h-4.791l-2.889,1.296
			C18.992,4.827,19.141,4.976,19.322,4.976z"/>
		<path style="fill:#010002;" d="M23.218,6.228c-0.168,0.055-0.288,0.129-0.382,0.221c-0.2,0.176-0.373,0.332-0.544,0.471
			c-0.088,0.068-0.179,0.137-0.287,0.181c-0.106,0.05-0.233,0.075-0.372,0.071c-0.139,0-0.284-0.04-0.427-0.097
			c-0.146-0.056-0.294-0.121-0.478-0.174c0.042,0.187,0.135,0.348,0.255,0.486c0.122,0.138,0.265,0.264,0.434,0.378
			c0.169,0.112,0.37,0.202,0.591,0.249c0.22,0.045,0.456,0.049,0.677,0.002c0.448-0.086,0.812-0.341,1.076-0.631
			c0.135-0.144,0.324-0.53,0.324-0.53s0.203-0.481,0.204-0.648c0.002,0.168,0.204,0.647,0.204,0.647s0.189,0.386,0.324,0.53
			c0.263,0.291,0.628,0.545,1.077,0.631c0.221,0.046,0.457,0.043,0.679-0.002c0.22-0.046,0.42-0.137,0.59-0.249
			c0.169-0.114,0.312-0.24,0.435-0.378c0.119-0.138,0.213-0.299,0.254-0.486c-0.183,0.053-0.332,0.118-0.478,0.174
			c-0.146,0.057-0.29,0.097-0.429,0.097C26.808,7.175,26.681,7.15,26.574,7.1c-0.109-0.044-0.2-0.113-0.286-0.181
			c-0.171-0.139-0.345-0.294-0.543-0.471c-0.097-0.091-0.216-0.166-0.385-0.221c-0.167-0.055-0.881-0.146-1.07-0.023
			c0,0,0,0,0,0.001C24.1,6.083,23.387,6.173,23.218,6.228z"/>
		<path style="fill:#010002;" d="M39.902,11.958c-1.946-1.156-4.471,1.389-6.158,3.322c-1.098-1.149-2.255-2.247-3.404-3.336
			c-0.779-1.007-1.882-1.741-3.181-2.169l-2.503,3.275c0,0-1.98-2.03-3.038-3.328c-1.708,0.52-3.094,1.56-3.881,3.043
			c-0.887,0.844-1.769,1.7-2.615,2.586c-1.572-1.812-3.862-4.158-5.692-3.52c-2.076,0.726-1.551,3.748,0.218,3.925
			c0.077,0.053,0.172,0.12,0.295,0.21c1.397,1.024,2.589,2.478,3.757,3.747c0.687,0.746,2.087,0.798,2.765,0
			c0.05-0.059,0.104-0.114,0.155-0.173c-0.31,3.144-0.691,7.665-0.748,11.333c-0.097,6.296,1.497,11.346,2.185,16.162
			c0.474,3.32,5.446,1.904,4.976-1.387c-0.437-3.06-0.179-6.145-0.282-9.232c0,0-0.798-3.043,1.546-3.359
			c2.346-0.316,1.608,3.355,1.608,3.355s0.155,6.176-0.281,9.236c-0.471,3.291,4.502,4.707,4.976,1.387
			c0.797-5.586,1.479-9.326,1.967-16.826c0.271-4.137-0.061-8.106-0.412-10.84c0.08,0.091,0.164,0.178,0.242,0.271
			c0.68,0.798,2.078,0.745,2.767,0c1.211-1.31,2.433-2.617,3.788-3.774c0.136-0.115,0.223-0.189,0.283-0.245
			C40.748,15.317,41.618,12.978,39.902,11.958z M24.588,22.518c-0.382,0-0.691-0.313-0.691-0.7s0.309-0.698,0.691-0.698
			c0.381,0,0.689,0.312,0.689,0.698C25.277,22.204,24.969,22.518,24.588,22.518z M24.588,19.768c-0.382,0-0.691-0.312-0.691-0.698
			c0-0.386,0.309-0.698,0.691-0.698c0.381,0,0.689,0.312,0.689,0.698C25.277,19.456,24.969,19.768,24.588,19.768z M24.588,17.009
			c-0.382,0-0.691-0.314-0.691-0.7c0-0.384,0.309-0.698,0.691-0.698c0.381,0,0.689,0.314,0.689,0.698
			C25.277,16.696,24.969,17.009,24.588,17.009z"/>
	</g>
</g>
</svg>